<svg width="640" height="334" xmlns="http://www.w3.org/2000/svg" style="transform: rotate(180deg);"><defs><linearGradient id="a" gradientTransform="rotate(90)"><stop offset="5%" stop-color="#a6b84f"/><stop offset="95%" stop-color="#bcc97b"/></linearGradient><linearGradient id="b" gradientTransform="rotate(90)"><stop offset="5%" stop-color="#b4c854"/><stop offset="95%" stop-color="#c6d57e"/></linearGradient><linearGradient id="c" gradientTransform="rotate(90)"><stop offset="5%" stop-color="#c0d559"/><stop offset="95%" stop-color="#cfdf82"/></linearGradient></defs><path fill="none" d="M0 0h640v334H0z"/><path d="M0 83c27.895-3.998 55.79-7.995 84-11s56.737-5.017 81-2c24.263 3.017 44.264 11.062 71 15 26.736 3.938 60.208 3.768 87 3 26.792-.768 46.903-2.134 71-5s52.18-7.233 80-5c27.82 2.233 55.377 11.067 83 13 27.623 1.933 55.311-3.033 123-8l-40 251H0Z" fill="url(#a)"/><path d="M0 167c27.981 5.755 55.963 11.51 83 9s53.131-13.285 78-13c24.869.285 48.513 11.63 76 9 27.487-2.63 58.815-19.232 85-20 26.185-.768 47.225 14.3 72 21 24.775 6.7 53.286 5.035 80 0s51.633-13.439 79-15c27.367-1.561 57.184 3.72 127 9l-40 167H0Z" fill="url(#b)"/><path d="M0 250c29.394-3.035 58.787-6.07 84-7 25.213-.93 46.244.245 74-1s62.235-4.91 88-1 42.815 15.393 68 16c25.185.607 58.503-9.662 86-8 27.497 1.662 49.172 15.255 75 15 25.828-.255 55.808-14.359 84-19s54.596.18 121 5l-40 84H0Z" fill="url(#c)"/></svg>