<svg width="1336" height="700" xmlns="http://www.w3.org/2000/svg"><defs><linearGradient id="a" gradientTransform="rotate(90)"><stop offset="5%" stop-color="#94a154"/><stop offset="95%" stop-color="#aeb87e"/></linearGradient><linearGradient id="b" gradientTransform="rotate(90)"><stop offset="5%" stop-color="#9caa59"/><stop offset="95%" stop-color="#b4bf82"/></linearGradient><linearGradient id="c" gradientTransform="rotate(90)"><stop offset="5%" stop-color="#a5b35e"/><stop offset="95%" stop-color="#bbc686"/></linearGradient><linearGradient id="d" gradientTransform="rotate(90)"><stop offset="5%" stop-color="#b0bf63"/><stop offset="95%" stop-color="#c3cf8a"/></linearGradient><linearGradient id="e" gradientTransform="rotate(90)"><stop offset="5%" stop-color="#bacb67"/><stop offset="95%" stop-color="#cbd88d"/></linearGradient><linearGradient id="f" gradientTransform="rotate(90)"><stop offset="5%" stop-color="#c5d76c"/><stop offset="95%" stop-color="#d3e190"/></linearGradient></defs><path fill="none" d="M0 0h1336v700H0z"/><path d="M0 100c55.33-3.152 110.66-6.304 164-4 53.34 2.304 104.693 10.063 165 13 60.307 2.937 129.57 1.051 186-5 56.43-6.051 100.03-16.268 155-19 54.97-2.732 121.312 2.02 176 9s97.724 16.187 148 15c50.276-1.187 107.793-12.768 166-16 58.207-3.232 117.103 1.884 216 7l-40 600H0Z" fill="url(#a)"/><path d="M0 200c64.057 4.187 128.114 8.375 179 9 50.886.625 88.603-2.312 143-6 54.397-3.688 125.476-8.127 181-8 55.524.127 95.494 4.821 151 4 55.506-.821 126.548-7.158 187-5 60.452 2.158 110.314 12.812 160 11 49.686-1.812 99.196-16.09 155-19s117.902 5.545 220 14l-40 500H0Z" fill="url(#b)"/><path d="M0 300c62.965-8.212 125.93-16.425 179-14 53.07 2.425 96.244 15.486 148 20 51.756 4.514 112.092.481 167-2s104.387-3.41 161-1 120.36 8.162 178 6c57.64-2.162 109.172-12.236 167-19 57.828-6.764 121.95-10.218 179-8s107.025 10.11 197 18l-40 400H0Z" fill="url(#c)"/><path d="M0 400c48.745.327 97.49.654 156-1 58.51-1.654 126.784-5.289 184-11 57.216-5.711 103.372-13.5 156-5s111.726 33.286 172 33c60.274-.286 121.723-25.644 174-30 52.277-4.356 95.382 12.289 149 14 53.618 1.711 117.748-11.511 177-14 59.252-2.489 113.626 5.756 208 14l-40 300H0Z" fill="url(#d)"/><path d="M0 500c53.075-5.973 106.15-11.946 161-15 54.85-3.054 111.473-3.19 166 3 54.527 6.19 106.96 18.704 161 24 54.04 5.296 109.69 3.375 168-1s119.279-11.204 179-16c59.721-4.796 118.194-7.56 173-10 54.806-2.44 105.945-4.554 160-2 54.055 2.554 111.028 9.777 208 17l-40 200H0Z" fill="url(#e)"/><path d="M0 600c52.315 2.66 104.63 5.318 160 3 55.37-2.318 113.797-9.613 174-6 60.203 3.613 122.182 18.135 177 16 54.818-2.135 102.476-20.929 156-25 53.524-4.071 112.914 6.579 167 10 54.086 3.421 102.87-.387 156-4 53.13-3.613 110.609-7.032 169-6 58.391 1.032 117.696 6.516 217 12l-40 100H0Z" fill="url(#f)"/></svg>